<?xml version="1.0" encoding="UTF-8"?>
<!DOCTYPE svg PUBLIC "-//W3C//DTD SVG 1.1//EN" "http://www.w3.org/Graphics/SVG/1.1/DTD/svg11.dtd">
<!-- Creator: CorelDRAW X7 -->
<svg xmlns="http://www.w3.org/2000/svg" xml:space="preserve" width="210mm" height="297mm" version="1.1" style="shape-rendering:geometricPrecision; text-rendering:geometricPrecision; image-rendering:optimizeQuality; fill-rule:evenodd; clip-rule:evenodd"
viewBox="0 0 21000 29700"
 xmlns:xlink="http://www.w3.org/1999/xlink">
 <defs>
  <style type="text/css">
   <![CDATA[
    .fil0 {fill:#ED3237}
   ]]>
  </style>
 </defs>
 <g id="Layer_x0020_1">
  <metadata id="CorelCorpID_0Corel-Layer"/>
  <path class="fil0" d="M10648 2563l5103 2946 5103 2946 0 5893 0 5892 -5103 2946 -5103 2946 -5103 -2946 -5103 -2946 0 -5892 0 -5893 5103 -2946 5103 -2946zm0 988l4675 2699 4675 2699 0 5399 0 5398 -4675 2699 -4675 2700 -4675 -2700 -4675 -2699 0 -5398 0 -5399 4675 -2699 4675 -2699z"/>
  <g id="_536909472">
   <polygon class="fil0" points="10447,5684 10447,5838 10465,6032 10474,6213 10505,6460 10522,6654 10531,6830 10540,7002 10540,7192 10544,7403 10522,7589 10500,7761 10491,7946 10456,8118 10434,8299 10390,8484 10355,8673 10280,8885 10205,9062 10148,9304 10059,9476 10002,9617 9923,9749 9843,9868 9768,9983 9689,10107 9610,10252 9530,10336 9464,10451 9345,10605 9266,10711 9155,10861 9014,11015 8913,11187 8794,11315 8683,11474 8573,11654 8432,11857 8317,12025 8247,12201 8168,12356 8044,12589 7977,12768 7902,12976 7860,13114 7828,13255 7799,13444 7768,13633 7764,13854 7755,14039 7764,14233 7791,14440 7813,14643 7870,14828 7923,14992 7998,15155 8077,15358 8183,15552 8298,15728 8443,15918 8567,16050 8730,16191 8893,16328 9087,16456 9303,16570 9515,16645 9735,16729 9965,16777 10194,16808 10432,16839 10692,16844 10952,16835 11160,16804 11402,16747 11552,16711 11768,16628 11927,16526 12130,16411 12337,16248 12535,16028 12707,15790 12831,15604 12954,15375 13051,15093 13104,14842 13135,14652 13153,14449 13162,14286 13162,14101 13135,13792 13113,13567 13078,13320 12950,13025 12884,12835 12809,12690 12672,12487 12549,12324 12452,12244 12293,12130 12169,12015 12011,11949 11847,11878 11667,11825 11534,11790 11376,11772 11261,11759 11076,11750 10913,11755 10732,11794 10604,11852 10480,11905 10291,12002 10172,12090 10031,12183 9912,12319 9810,12474 9700,12703 9634,12862 9581,13078 9546,13267 9528,13470 9532,13695 9590,13832 9634,14008 9726,14189 9828,14330 9969,14498 10136,14599 10269,14661 10432,14705 10582,14731 10785,14736 10974,14753 11186,14718 11345,14687 11455,14634 11587,14577 11667,14524 11486,14546 11327,14542 11177,14551 10996,14537 10829,14467 10648,14348 10458,14189 10361,14057 10286,13938 10251,13792 10260,13629 10304,13453 10361,13232 10432,13113 10503,12994 10661,12862 10820,12747 11063,12676 11252,12654 11420,12663 11570,12712 11720,12782 11874,12870 12033,13020 12156,13228 12266,13457 12310,13629 12350,13810 12359,13991 12355,14185 12333,14427 12306,14577 12213,14811 12112,15014 12011,15172 11861,15340 11693,15499 11486,15631 11212,15772 10988,15843 10846,15860 10674,15873 10361,15887 10092,15851 9841,15776 9678,15706 9510,15622 9330,15499 9193,15375 9056,15247 8933,15062 8814,14855 8769,14700 8721,14564 8712,14454 8699,14308 8712,14101 8712,13889 8725,13699 8761,13532 8800,13373 8844,13214 8897,13042 8968,12853 9043,12694 9118,12504 9210,12337 9303,12160 9431,11962 9546,11794 9704,11592 9859,11380 10022,11155 10141,10983 10264,10793 10392,10573 10511,10335 10608,10106 10701,9854 10758,9665 10807,9418 10846,9210 10886,8941 10921,8716 10935,8461 10939,8183 10952,7949 10930,7715 10913,7451 10899,7213 10860,7028 10798,6794 10741,6551 10661,6348 10573,6084 10507,5899 "/>
   <polygon class="fil0" points="13788,13078 13819,13382 13828,13629 13836,13801 13828,14021 13814,14193 13783,14423 13761,14577 13731,14837 13660,15066 13585,15296 13475,15534 13378,15719 13206,15988 13012,16213 12782,16447 12580,16650 12377,16852 12169,17024 11971,17183 11777,17315 11605,17439 11358,17633 11173,17787 10974,17942 10785,18127 10613,18281 10441,18475 10295,18665 10150,18890 10026,19075 9934,19304 9837,19564 9771,19772 9726,19983 9700,20155 9700,20327 9700,20543 9691,20711 9718,20923 9771,21187 9823,21372 9876,21549 9960,21778 10062,21968 10154,22153 10256,22316 10379,22475 10494,22620 10639,22770 10789,22894 10838,22933 10807,22797 10767,22682 10705,22514 10644,22338 10582,22104 10520,21906 10494,21712 10463,21505 10441,21293 10423,21064 10432,20843 10432,20601 10472,20345 10525,20138 10582,19957 10675,19763 10794,19560 10891,19392 11032,19229 11168,19053 11332,18912 11486,18735 11658,18638 11773,18488 11949,18352 12165,18193 12355,18039 12531,17911 12721,17752 12928,17576 13096,17404 13241,17249 13387,17068 13541,16866 13673,16654 13775,16473 13885,16244 13951,16028 14030,15807 14092,15587 14127,15384 14141,15172 14167,14943 14176,14692 14154,14458 14136,14242 14105,14004 14052,13757 14000,13497 13920,13285 "/>
  </g>
 </g>
</svg>
