<?xml version="1.0" encoding="UTF-8"?>
<!DOCTYPE svg PUBLIC "-//W3C//DTD SVG 1.1//EN" "http://www.w3.org/Graphics/SVG/1.1/DTD/svg11.dtd">
<!-- Creator: CorelDRAW X7 -->
<svg xmlns="http://www.w3.org/2000/svg" xml:space="preserve" width="210mm" height="297mm" version="1.1" style="shape-rendering:geometricPrecision; text-rendering:geometricPrecision; image-rendering:optimizeQuality; fill-rule:evenodd; clip-rule:evenodd"
viewBox="0 0 21000 29700"
 xmlns:xlink="http://www.w3.org/1999/xlink">
 <defs>
  <style type="text/css">
   <![CDATA[
    .fil0 {fill:#ED3237}
   ]]>
  </style>
 </defs>
 <g id="Layer_x0020_1">
  <metadata id="CorelCorpID_0Corel-Layer"/>
  <g id="_539420768">
   <polygon class="fil0" points="9531,6216 9531,6370 9548,6565 9557,6745 9588,6992 9605,7186 9614,7363 9623,7535 9623,7724 9628,7936 9605,8121 9583,8293 9575,8478 9539,8650 9517,8831 9473,9016 9438,9206 9363,9418 9288,9594 9231,9837 9143,10009 9085,10150 9006,10282 8926,10401 8851,10516 8772,10639 8693,10785 8613,10868 8547,10983 8428,11137 8349,11243 8239,11393 8097,11548 7996,11720 7877,11847 7767,12006 7656,12187 7515,12390 7401,12557 7330,12734 7251,12888 7127,13122 7060,13300 6985,13509 6943,13647 6911,13788 6883,13976 6852,14166 6847,14386 6838,14572 6847,14766 6874,14973 6896,15176 6953,15361 7006,15524 7081,15687 7160,15890 7266,16084 7381,16260 7526,16450 7650,16582 7813,16723 7976,16860 8170,16988 8386,17103 8598,17178 8818,17261 9048,17310 9277,17341 9515,17372 9775,17376 10036,17367 10243,17336 10485,17279 10635,17244 10851,17160 11010,17059 11213,16944 11420,16781 11619,16560 11791,16322 11914,16137 12038,15908 12135,15625 12187,15374 12218,15184 12236,14982 12245,14818 12245,14633 12218,14325 12196,14100 12161,13853 12033,13557 11967,13368 11892,13222 11755,13019 11632,12856 11535,12777 11376,12662 11253,12547 11094,12481 10931,12411 10750,12358 10618,12323 10459,12305 10344,12292 10159,12283 9996,12287 9815,12327 9687,12384 9564,12437 9374,12534 9255,12622 9114,12715 8995,12852 8893,13006 8783,13235 8717,13394 8664,13610 8629,13800 8611,14003 8616,14228 8673,14364 8717,14541 8810,14721 8911,14863 9052,15030 9220,15132 9352,15193 9515,15237 9665,15264 9868,15268 10058,15286 10269,15251 10428,15220 10538,15167 10671,15110 10750,15057 10569,15079 10410,15074 10260,15083 10080,15070 9912,14999 9731,14880 9542,14721 9445,14589 9370,14470 9334,14325 9343,14161 9387,13985 9445,13765 9515,13645 9586,13526 9744,13394 9903,13279 10146,13209 10335,13187 10503,13196 10653,13244 10803,13315 10957,13403 11116,13553 11239,13760 11350,13989 11394,14161 11433,14342 11442,14523 11438,14717 11416,14960 11389,15110 11297,15343 11195,15546 11094,15705 10944,15872 10776,16031 10569,16163 10296,16305 10071,16375 9930,16393 9758,16406 9445,16419 9176,16384 8924,16309 8761,16238 8594,16155 8413,16031 8276,15908 8139,15780 8016,15595 7897,15387 7853,15233 7804,15096 7795,14986 7782,14841 7795,14633 7795,14422 7809,14232 7844,14064 7884,13906 7928,13747 7981,13575 8051,13385 8126,13227 8201,13037 8294,12869 8386,12693 8514,12495 8629,12327 8788,12124 8942,11912 9105,11688 9224,11516 9348,11326 9475,11105 9595,10867 9692,10638 9784,10387 9841,10197 9890,9950 9930,9743 9969,9474 10005,9249 10018,8993 10022,8715 10036,8482 10013,8248 9996,7983 9983,7745 9943,7560 9881,7326 9824,7084 9744,6881 9656,6616 9590,6431 "/>
   <polygon class="fil0" points="12871,13610 12902,13914 12911,14161 12920,14333 12911,14554 12898,14726 12867,14955 12845,15109 12814,15370 12743,15599 12668,15828 12558,16066 12461,16252 12289,16521 12095,16745 11866,16979 11663,17182 11460,17385 11253,17557 11054,17716 10860,17848 10688,17971 10441,18165 10256,18320 10058,18474 9868,18659 9696,18814 9524,19008 9379,19197 9233,19422 9110,19607 9017,19837 8920,20097 8854,20304 8810,20516 8783,20688 8783,20860 8783,21076 8774,21243 8801,21455 8854,21720 8907,21905 8960,22081 9043,22311 9145,22500 9237,22685 9339,22849 9462,23007 9577,23153 9723,23303 9872,23426 9921,23466 9890,23329 9850,23215 9789,23047 9727,22871 9665,22637 9603,22438 9577,22244 9546,22037 9524,21825 9506,21596 9515,21376 9515,21133 9555,20877 9608,20670 9665,20489 9758,20295 9877,20092 9974,19925 10115,19762 10252,19585 10415,19444 10569,19268 10741,19171 10856,19021 11032,18884 11248,18725 11438,18571 11614,18443 11804,18284 12011,18108 12179,17936 12324,17782 12470,17601 12624,17398 12756,17186 12858,17006 12968,16776 13034,16560 13114,16340 13175,16119 13211,15916 13224,15705 13250,15475 13259,15224 13237,14990 13219,14774 13189,14536 13136,14289 13083,14029 13003,13817 "/>
  </g>
 </g>
</svg>
