<?xml version="1.0" encoding="UTF-8"?>
<!DOCTYPE svg PUBLIC "-//W3C//DTD SVG 1.1//EN" "http://www.w3.org/Graphics/SVG/1.1/DTD/svg11.dtd">
<!-- Creator: CorelDRAW X7 -->
<svg xmlns="http://www.w3.org/2000/svg" xml:space="preserve" width="210mm" height="297mm" version="1.1" style="shape-rendering:geometricPrecision; text-rendering:geometricPrecision; image-rendering:optimizeQuality; fill-rule:evenodd; clip-rule:evenodd"
viewBox="0 0 21000 29700"
 xmlns:xlink="http://www.w3.org/1999/xlink">
 <defs>
  <style type="text/css">
   <![CDATA[
    .str0 {stroke:#373435;stroke-width:400}
    .fil0 {fill:#FEFEFE}
    .fil2 {fill:#373435}
    .fil1 {fill:#ED3237}
   ]]>
  </style>
 </defs>
 <g id="Layer_x0020_1">
  <metadata id="CorelCorpID_0Corel-Layer"/>
  <polygon class="fil0 str0" points="9945,27410 8042,26178 6380,24704 5147,23256 4075,21970 3700,21273 3164,19317 2843,17602 2735,15565 2575,13662 2682,11518 2735,9642 3057,8249 3566,6882 4156,5676 4987,4470 5523,3800 6085,3291 6541,3183 6943,3210 7318,3585 7613,4202 7854,4738 8042,5193 8229,5676 8363,6292 8497,6801 8551,7498 8658,7766 9087,7659 9569,7605 10213,7552 10722,7579 11338,7552 11981,7632 12517,7713 13053,7873 13241,7632 13348,6935 13509,6292 13670,5569 14072,4684 14420,3987 14769,3505 15090,3210 15385,3210 16001,3532 16511,3934 16993,4604 17475,5301 18038,6399 18494,7311 18735,8222 19003,9374 19137,10446 19190,11572 19164,13528 19110,16074 18896,18191 18762,19102 18547,20255 18279,20978 17315,22613 15063,25052 13000,26767 11928,27357 11445,27544 10641,27571 "/>
  <polygon class="fil1" points="3968,13314 4209,12537 4504,11893 4960,11304 5496,10661 5898,10178 6541,9669 7265,9053 7238,8409 7157,7605 6970,6775 6702,5756 6568,5193 6380,4845 6005,5461 5576,6185 5013,7364 4585,8490 4209,9589 4022,10580 3807,11652 3754,12590 3781,12965 "/>
  <polygon class="fil1" points="14501,9026 15144,9481 15626,9830 16269,10500 16725,11089 17288,11893 17556,12456 17770,13287 17857,13314 17928,13230 18008,12965 18068,12644 18001,11813 17814,10634 17626,9615 17251,8490 16742,7230 16313,6239 15857,5435 15428,4845 15268,5140 15053,5756 14866,6775 14651,7686 14517,8597 "/>
  <polygon class="fil2" points="12078,18365 12105,18030 12186,17642 12413,17253 12735,16918 13057,16690 13472,16556 13941,16369 14276,16302 14785,16128 15093,16074 15616,15873 16165,15618 16822,15069 16835,15377 16782,15806 16541,16275 16152,16811 15656,17334 15026,17669 14691,17803 14155,17883 13887,17910 13338,17910 12802,17910 12655,17923 12320,18218 "/>
  <polygon class="fil2" points="9888,18392 9861,18057 9780,17669 9553,17280 9231,16945 8909,16717 8494,16583 8025,16396 7690,16329 7181,16154 6873,16101 6350,15900 5801,15645 5144,15096 5131,15404 5184,15833 5425,16302 5814,16838 6310,17360 6940,17695 7275,17829 7811,17910 8079,17937 8628,17937 9164,17937 9311,17950 9646,18245 "/>
  <polygon class="fil1" points="5459,21702 5164,21340 4977,20871 4816,20429 4722,20014 4695,19598 4695,19049 4749,18593 4829,18258 4869,17977 4963,17749 4829,17494 4615,17039 4481,16637 4360,16235 4374,15793 4368,15488 4536,15702 4630,16031 4858,16640 5420,17417 6144,17980 6894,18382 7752,18543 8744,18543 9072,18496 8717,18697 8275,18764 7551,18871 6720,18764 6131,18590 5621,18362 5528,18523 5286,19233 5219,19729 5193,20466 5273,21109 5434,21404 "/>
  <polygon class="fil1" points="16442,21702 16737,21340 16924,20871 17085,20429 17179,20014 17206,19598 17206,19049 17152,18593 17072,18258 17031,17977 16938,17749 17072,17494 17286,17039 17420,16637 17541,16235 17527,15793 17532,15488 17365,15702 17271,16031 17043,16640 16480,17417 15757,17980 15006,18382 14149,18543 13157,18543 12829,18496 13184,18697 13626,18764 14350,18871 15181,18764 15770,18590 16279,18362 16373,18523 16614,19233 16681,19729 16708,20466 16628,21109 16467,21404 "/>
  <polygon class="fil1" points="7832,23601 8275,23615 8837,23655 9320,23601 9802,23467 10352,23320 10727,23052 10995,22838 11209,23065 11517,23240 12026,23441 12509,23521 12964,23601 13447,23642 13902,23642 14110,23622 13886,23782 13588,23879 13256,23893 12941,23926 12613,23926 12311,23879 11956,23819 11681,23685 11440,23551 11192,23397 10985,23276 10764,23424 10442,23605 9953,23792 9537,23900 9156,23926 8754,23913 8298,23873 8080,23812 7943,23739 "/>
  <polygon class="fil1" points="8214,8768 8408,8654 8730,8453 8774,8602 8784,8729 8827,8997 8961,9413 9216,9748 9738,10150 10234,10351 10569,10592 10891,11047 11065,10820 11373,10552 11695,10351 12057,10190 12392,9989 12713,9734 12861,9439 12968,9037 13048,8702 13048,8501 13330,8582 13557,8743 13557,9051 13423,9413 13316,9734 13021,10029 12727,10270 12472,10485 12110,10619 11655,10820 11360,11047 11145,11262 10931,11771 10784,11449 10596,11128 10274,10833 9752,10672 9417,10538 9135,10431 8800,10150 8506,9788 8345,9426 8211,9011 "/>
 </g>
</svg>
