<?xml version="1.0" encoding="UTF-8"?>
<!DOCTYPE svg PUBLIC "-//W3C//DTD SVG 1.1//EN" "http://www.w3.org/Graphics/SVG/1.1/DTD/svg11.dtd">
<!-- Creator: CorelDRAW X7 -->
<svg xmlns="http://www.w3.org/2000/svg" xml:space="preserve" width="210mm" height="297mm" version="1.1" style="shape-rendering:geometricPrecision; text-rendering:geometricPrecision; image-rendering:optimizeQuality; fill-rule:evenodd; clip-rule:evenodd"
viewBox="0 0 21000 29700"
 xmlns:xlink="http://www.w3.org/1999/xlink">
 <defs>
  <style type="text/css">
   <![CDATA[
    .fil0 {fill:#00AFEF}
   ]]>
  </style>
 </defs>
 <g id="Layer_x0020_1">
  <metadata id="CorelCorpID_0Corel-Layer"/>
  <circle class="fil0" cx="9938" cy="8435" r="2453"/>
  <circle class="fil0" cx="5291" cy="10888" r="1701"/>
  <circle class="fil0" cx="14714" cy="10888" r="1701"/>
  <circle class="fil0" cx="18071" cy="12179" r="1134"/>
  <circle class="fil0" cx="2064" cy="12444" r="1134"/>
  <polygon class="fil0" points="6445,22022 14029,21925 13835,14761 13803,14438 13512,13696 13286,13115 12835,12598 12318,12082 11705,11759 11027,11501 10479,11501 10059,11469 9285,11501 8704,11727 8090,12017 7510,12437 7090,12953 6767,13470 6574,13986 6445,14470 6348,15051 6380,16536 "/>
  <polygon class="fil0" points="14029,13211 14287,13631 14513,14180 14545,14696 14739,20344 17450,20376 17256,14922 16933,14276 16578,13921 16223,13631 15933,13405 15513,13211 14932,13082 14480,13050 "/>
  <polygon class="fil0" points="6160,13486 5918,13905 5713,14454 5701,14970 5725,20618 3015,20650 2999,15196 3297,14551 3638,14196 3982,13905 4264,13679 4676,13486 5252,13357 5702,13324 "/>
  <polygon class="fil0" points="2572,14492 2404,14783 2262,15164 2253,15523 2269,19443 388,19465 377,15680 584,15231 821,14985 1060,14783 1255,14627 1541,14492 1941,14403 2254,14380 "/>
  <polygon class="fil0" points="17740,14073 17908,14364 18050,14745 18059,15103 18042,19024 19923,19046 19935,15260 19728,14812 19491,14565 19252,14364 19057,14207 18770,14073 18371,13983 18058,13961 "/>
 </g>
</svg>
