<?xml version="1.0" encoding="UTF-8"?>
<!DOCTYPE svg PUBLIC "-//W3C//DTD SVG 1.1//EN" "http://www.w3.org/Graphics/SVG/1.1/DTD/svg11.dtd">
<!-- Creator: CorelDRAW X7 -->
<svg xmlns="http://www.w3.org/2000/svg" xml:space="preserve" width="210mm" height="297mm" version="1.1" style="shape-rendering:geometricPrecision; text-rendering:geometricPrecision; image-rendering:optimizeQuality; fill-rule:evenodd; clip-rule:evenodd"
viewBox="0 0 21000 29700"
 xmlns:xlink="http://www.w3.org/1999/xlink">
 <defs>
  <style type="text/css">
   <![CDATA[
    .str0 {stroke:#373435;stroke-width:20}
    .fil1 {fill:none}
    .fil2 {fill:#FEFEFE}
    .fil3 {fill:#373435}
    .fil0 {fill:#00AFEF}
    .fil4 {fill:#881846}
    .fil5 {fill:#F7BBD5}
   ]]>
  </style>
   <clipPath id="id0">
    <path d="M10860 4394c6251,0 11318,5175 11318,11559 0,6384 -5067,11560 -11318,11560 -6250,0 -11318,-5176 -11318,-11560 0,-6384 5068,-11559 11318,-11559z"/>
   </clipPath>
   <clipPath id="id1">
    <path d="M1926 15083c-121,-522 -241,-1045 -362,-1567 52,-375 103,-750 155,-1124 207,-529 414,-1059 621,-1588 184,-322 368,-644 552,-966 322,-92 644,-184 966,-276 368,23 736,46 1104,69 228,83 455,167 682,250 141,133 282,265 423,397 146,158 293,316 440,475 132,192 264,385 396,578 107,186 213,373 320,560 72,187 143,374 215,561 26,155 52,310 78,466 11,184 23,368 34,552 -14,158 -28,316 -43,474 -23,164 -46,328 -69,492 -54,150 -109,299 -164,449 -40,57 -80,115 -120,172 -1743,9 -3486,17 -5228,26z"/>
   </clipPath>
   <clipPath id="id2">
    <path d="M3091 17464c4739,-35 9478,-69 14216,-104 104,208 207,415 311,622 46,287 92,575 138,862 -35,299 -69,598 -104,897 0,265 0,530 0,794 -92,184 -184,368 -276,552 -115,276 -230,552 -345,828 -103,207 -207,414 -310,621 -207,184 -414,368 -621,552 -265,219 -529,438 -794,656 -253,219 -506,437 -759,656 -299,138 -598,276 -897,414 -391,92 -782,184 -1173,276 -265,34 -530,69 -794,103 -276,12 -552,23 -828,35 -357,0 -713,0 -1070,0 -288,-46 -575,-92 -863,-138 -345,-161 -690,-322 -1035,-483 -322,-138 -644,-276 -966,-414 -322,-196 -644,-391 -966,-587 -230,-218 -460,-437 -690,-656 -161,-241 -322,-483 -483,-724 -150,-207 -299,-414 -449,-621 -126,-253 -253,-506 -380,-759 -161,-311 -322,-622 -483,-932 -80,-276 -161,-552 -241,-828 11,-253 23,-506 34,-759 -57,-288 -115,-575 -172,-863z"/>
   </clipPath>
   <clipPath id="id3">
    <path d="M11519 15083c-121,-522 -242,-1045 -362,-1567 51,-375 103,-750 155,-1124 207,-529 414,-1059 621,-1588 184,-322 368,-644 552,-966 322,-92 644,-184 966,-276 368,23 736,46 1104,69 227,83 455,167 682,250 141,133 281,265 422,397 147,158 294,316 440,475 133,192 265,385 397,578 107,186 213,373 319,560 72,187 144,374 216,561 26,155 52,310 78,466 11,184 23,368 34,552 -14,158 -29,316 -43,474 -23,164 -46,328 -69,492 -55,150 -109,299 -164,449 -40,57 -80,115 -121,172 -1742,9 -3485,17 -5227,26z"/>
   </clipPath>
 </defs>
 <g id="Layer_x0020_1">
  <metadata id="CorelCorpID_0Corel-Layer"/>
  <path class="fil0" d="M10860 4394c6251,0 11318,5175 11318,11559 0,6384 -5067,11560 -11318,11560 -6250,0 -11318,-5176 -11318,-11560 0,-6384 5068,-11559 11318,-11559z"/>
  <g style="clip-path:url(#id0)">
   <g id="_371798184">
    <ellipse class="fil1 str0" cx="5385" cy="11615" rx="1242" ry="1760"/>
   </g>
  </g>
  <path class="fil1" d="M10860 4394c6251,0 11318,5175 11318,11559 0,6384 -5067,11560 -11318,11560 -6250,0 -11318,-5176 -11318,-11560 0,-6384 5068,-11559 11318,-11559z"/>
  <path class="fil2" d="M1926 15083c-121,-522 -241,-1045 -362,-1567 52,-375 103,-750 155,-1124 207,-529 414,-1059 621,-1588 184,-322 368,-644 552,-966 322,-92 644,-184 966,-276 368,23 736,46 1104,69 228,83 455,167 682,250 141,133 282,265 423,397 146,158 293,316 440,475 132,192 264,385 396,578 107,186 213,373 320,560 72,187 143,374 215,561 26,155 52,310 78,466 11,184 23,368 34,552 -14,158 -28,316 -43,474 -23,164 -46,328 -69,492 -54,150 -109,299 -164,449 -40,57 -80,115 -120,172 -1743,9 -3486,17 -5228,26z"/>
  <g style="clip-path:url(#id1)">
   <g id="_371798544">
    <ellipse class="fil3 str0" cx="5385" cy="11080" rx="932" ry="1449"/>
   </g>
  </g>
  <path class="fil1" d="M1926 15083c-121,-522 -241,-1045 -362,-1567 52,-375 103,-750 155,-1124 207,-529 414,-1059 621,-1588 184,-322 368,-644 552,-966 322,-92 644,-184 966,-276 368,23 736,46 1104,69 228,83 455,167 682,250 141,133 282,265 423,397 146,158 293,316 440,475 132,192 264,385 396,578 107,186 213,373 320,560 72,187 143,374 215,561 26,155 52,310 78,466 11,184 23,368 34,552 -14,158 -28,316 -43,474 -23,164 -46,328 -69,492 -54,150 -109,299 -164,449 -40,57 -80,115 -120,172 -1743,9 -3486,17 -5228,26z"/>
  <path class="fil4" d="M3091 17464c4739,-35 9478,-69 14216,-104 104,208 207,415 311,622 46,287 92,575 138,862 -35,299 -69,598 -104,897 0,265 0,530 0,794 -92,184 -184,368 -276,552 -115,276 -230,552 -345,828 -103,207 -207,414 -310,621 -207,184 -414,368 -621,552 -265,219 -529,438 -794,656 -253,219 -506,437 -759,656 -299,138 -598,276 -897,414 -391,92 -782,184 -1173,276 -265,34 -530,69 -794,103 -276,12 -552,23 -828,35 -357,0 -713,0 -1070,0 -288,-46 -575,-92 -863,-138 -345,-161 -690,-322 -1035,-483 -322,-138 -644,-276 -966,-414 -322,-196 -644,-391 -966,-587 -230,-218 -460,-437 -690,-656 -161,-241 -322,-483 -483,-724 -150,-207 -299,-414 -449,-621 -126,-253 -253,-506 -380,-759 -161,-311 -322,-622 -483,-932 -80,-276 -161,-552 -241,-828 11,-253 23,-506 34,-759 -57,-288 -115,-575 -172,-863z"/>
  <g style="clip-path:url(#id2)">
   <g id="_371797992">
    <ellipse class="fil5 str0" cx="11321" cy="27574" rx="6591" ry="5555"/>
   </g>
  </g>
  <path class="fil1" d="M3091 17464c4739,-35 9478,-69 14216,-104 104,208 207,415 311,622 46,287 92,575 138,862 -35,299 -69,598 -104,897 0,265 0,530 0,794 -92,184 -184,368 -276,552 -115,276 -230,552 -345,828 -103,207 -207,414 -310,621 -207,184 -414,368 -621,552 -265,219 -529,438 -794,656 -253,219 -506,437 -759,656 -299,138 -598,276 -897,414 -391,92 -782,184 -1173,276 -265,34 -530,69 -794,103 -276,12 -552,23 -828,35 -357,0 -713,0 -1070,0 -288,-46 -575,-92 -863,-138 -345,-161 -690,-322 -1035,-483 -322,-138 -644,-276 -966,-414 -322,-196 -644,-391 -966,-587 -230,-218 -460,-437 -690,-656 -161,-241 -322,-483 -483,-724 -150,-207 -299,-414 -449,-621 -126,-253 -253,-506 -380,-759 -161,-311 -322,-622 -483,-932 -80,-276 -161,-552 -241,-828 11,-253 23,-506 34,-759 -57,-288 -115,-575 -172,-863z"/>
  <path class="fil2" d="M11519 15083c-121,-522 -242,-1045 -362,-1567 51,-375 103,-750 155,-1124 207,-529 414,-1059 621,-1588 184,-322 368,-644 552,-966 322,-92 644,-184 966,-276 368,23 736,46 1104,69 227,83 455,167 682,250 141,133 281,265 422,397 147,158 294,316 440,475 133,192 265,385 397,578 107,186 213,373 319,560 72,187 144,374 216,561 26,155 52,310 78,466 11,184 23,368 34,552 -14,158 -29,316 -43,474 -23,164 -46,328 -69,492 -55,150 -109,299 -164,449 -40,57 -80,115 -121,172 -1742,9 -3485,17 -5227,26z"/>
  <g style="clip-path:url(#id3)">
   <g id="_371797512">
    <ellipse class="fil3 str0" cx="14978" cy="11080" rx="932" ry="1449"/>
   </g>
  </g>
  <path class="fil1" d="M11519 15083c-121,-522 -242,-1045 -362,-1567 51,-375 103,-750 155,-1124 207,-529 414,-1059 621,-1588 184,-322 368,-644 552,-966 322,-92 644,-184 966,-276 368,23 736,46 1104,69 227,83 455,167 682,250 141,133 281,265 422,397 147,158 294,316 440,475 133,192 265,385 397,578 107,186 213,373 319,560 72,187 144,374 216,561 26,155 52,310 78,466 11,184 23,368 34,552 -14,158 -29,316 -43,474 -23,164 -46,328 -69,492 -55,150 -109,299 -164,449 -40,57 -80,115 -121,172 -1742,9 -3485,17 -5227,26z"/>
 </g>
</svg>
