<?xml version="1.0" encoding="UTF-8"?>
<!DOCTYPE svg PUBLIC "-//W3C//DTD SVG 1.1//EN" "http://www.w3.org/Graphics/SVG/1.1/DTD/svg11.dtd">
<!-- Creator: CorelDRAW X7 -->
<svg xmlns="http://www.w3.org/2000/svg" xml:space="preserve" width="210mm" height="297mm" version="1.1" style="shape-rendering:geometricPrecision; text-rendering:geometricPrecision; image-rendering:optimizeQuality; fill-rule:evenodd; clip-rule:evenodd"
viewBox="0 0 21000 29700"
 xmlns:xlink="http://www.w3.org/1999/xlink">
 <defs>
  <style type="text/css">
   <![CDATA[
    .fil1 {fill:#FEFEFE}
    .fil0 {fill:#00AFEF}
   ]]>
  </style>
 </defs>
 <g id="Layer_x0020_1">
  <metadata id="CorelCorpID_0Corel-Layer"/>
  <polygon class="fil0" points="911,17680 677,7667 1497,7667 3019,7374 4073,7081 6240,6027 7879,5149 9168,4271 10749,3099 11685,3861 13911,5266 15550,6027 17424,6613 19181,6847 20410,7023 20528,8252 20528,17212 20528,18031 20059,19320 19356,20667 18888,21340 18185,22013 17483,22658 16721,23331 15843,23946 15023,24502 14262,25000 13530,25380 12798,25820 12037,26171 11276,26552 10778,26669 10163,26493 9343,26142 8523,25703 7704,25322 6942,24824 6269,24356 5478,23829 4805,23302 4044,22687 3283,21984 2697,21340 2170,20667 1731,19876 1262,19027 1057,18383 "/>
  <polygon class="fil1" points="4746,15572 6357,13903 9021,16538 15726,9336 17424,10888 9138,19876 "/>
 </g>
</svg>
